<?xml version="1.0" encoding="utf-8"?>
<!-- Svg Vector Icons : http://www.onlinewebfonts.com/icon -->
<!DOCTYPE svg PUBLIC "-//W3C//DTD SVG 1.1//EN" "http://www.w3.org/Graphics/SVG/1.1/DTD/svg11.dtd">
<svg version="1.1" xmlns="http://www.w3.org/2000/svg" xmlns:xlink="http://www.w3.org/1999/xlink" x="0px" y="0px" viewBox="0 0 1000 1000" enable-background="new 0 0 1000 1000" xml:space="preserve">
<metadata> Svg Vector Icons : http://www.onlinewebfonts.com/icon </metadata>
<g><path d="M238.4,15.3c0,0-73.3,4.4-99.1,50.2C113.4,111.3,29.4,347,29.4,347s28,13.1,75.4-21.8c47.4-34.9,62.5-96,62.5-96l86.2-4.4l2.2,248.8c0,0-148.7-2.2-178.8,0c-30.2,2.2-47.4,82.9-47.4,82.9h226.2c0,0-19.4,137.5-77.6,237.9C119.9,894.8,10,973.4,10,973.4s79.7,32.7,157.3-13.1C244.8,914.4,302,712.9,302,712.9l182,225.6c0,0,16.6-107.4-2.9-137.7c-19.6-30.3-125.9-152.2-125.9-152.2L308.7,690l33-133.5H540c0,0,0-78.6-38.8-82.9c-38.8-4.4-159.4,0-159.4,0V229.2h178.8c0,0-2.2-80.7-36.6-80.7c-34.5,0-290.9,0-290.9,0L238.4,15.3z M582.3,140.7H990v734.8H809.8l-128.2,92.2l-26.5-92.2h-72.8V140.7z M668.6,222.5h238.5v569.6h-84.7l-108,82.5l-23.5-82.5h-22.2V222.5z"/></g>
</svg>